<?xml version="1.0" encoding="UTF-8"?>
<svg xmlns="http://www.w3.org/2000/svg" xmlns:xlink="http://www.w3.org/1999/xlink" width="30px" height="19px" viewBox="0 0 30 19" version="1.1">
<g id="surface1">
<path style=" stroke:none;fill-rule:nonzero;fill:rgb(45.490196%,67.450982%,87.450981%);fill-opacity:1;" d="M 0.320312 0 L 29.679688 0 L 29.679688 19 L 0.320312 19 Z M 0.320312 0 "/>
<path style=" stroke:none;fill-rule:nonzero;fill:rgb(100%,100%,100%);fill-opacity:1;" d="M 0.320312 6.335938 L 29.679688 6.335938 L 29.679688 12.664062 L 0.320312 12.664062 Z M 0.320312 6.335938 "/>
<path style="fill-rule:nonzero;fill:rgb(96.470588%,70.588237%,5.490196%);fill-opacity:1;stroke-width:1.1116;stroke-linecap:butt;stroke-linejoin:miter;stroke:rgb(52.156866%,20.392157%,3.921569%);stroke-opacity:1;stroke-miterlimit:4;" d="M 396.807058 251.336356 L 425.224177 313.322377 C 425.224177 313.322377 425.862764 314.55593 426.607782 314.144746 C 427.3528 313.836358 426.927076 312.602805 426.927076 312.602805 L 403.192927 248.766455 M 402.447909 272.820732 C 402.128616 282.277969 407.98233 287.417771 407.13088 295.847048 C 406.385862 304.276325 411.068833 309.004943 412.133145 312.294417 C 413.197456 315.583891 410.962402 317.537016 411.920282 317.9482 C 412.878163 318.46218 415.006786 315.892279 414.261768 311.266456 C 413.623181 306.537838 410.004522 305.201489 410.962402 294.921883 C 411.70742 284.642278 406.705156 282.175173 407.98233 272.820732 " transform="matrix(0.0367021,0,0,0.038,0.319149,0)"/>
<path style="fill-rule:nonzero;fill:rgb(96.470588%,70.588237%,5.490196%);fill-opacity:1;stroke-width:1.1116;stroke-linecap:butt;stroke-linejoin:miter;stroke:rgb(52.156866%,20.392157%,3.921569%);stroke-opacity:1;stroke-miterlimit:4;" d="M 396.853413 251.303709 L 425.294649 313.292122 C 425.294649 313.292122 425.766709 314.431777 426.553346 314.105942 C 427.339982 313.780107 426.867922 312.640452 426.867922 312.640452 L 403.146504 248.69703 M 402.420263 272.808702 C 402.047153 282.198299 407.908045 287.447974 407.102213 295.792888 C 406.473388 304.287015 411.05593 308.953542 412.098445 312.304751 C 413.199952 315.52026 410.997429 317.433965 411.902113 317.949358 C 412.944465 318.518994 414.969949 315.899761 414.281348 311.178033 C 413.533756 306.592006 410.05272 305.140989 410.878107 294.896458 C 411.703494 284.651927 406.747417 282.142906 407.966187 272.848088 " transform="matrix(0.0339084,0.0145419,-0.0140453,0.0351074,4.947986,-5.093644)"/>
<path style="fill-rule:nonzero;fill:rgb(96.470588%,70.588237%,5.490196%);fill-opacity:1;stroke-width:1.1116;stroke-linecap:butt;stroke-linejoin:miter;stroke:rgb(52.156866%,20.392157%,3.921569%);stroke-opacity:1;stroke-miterlimit:4;" d="M 396.869825 251.385515 L 425.226379 313.307173 C 425.226379 313.307173 425.7976 314.480459 426.54247 314.171715 C 427.360027 313.93566 426.939323 312.611858 426.939323 312.611858 L 403.129816 248.614537 M 402.487652 272.807539 C 402.175206 282.278644 407.927822 287.429194 407.18953 295.872389 C 406.378552 304.242896 411.027999 309.042859 412.079761 312.352364 C 413.206781 315.58661 410.954179 317.548461 411.906831 318.049564 C 412.934741 318.47541 414.97699 315.851658 414.392199 311.20293 C 413.659461 306.556772 410.059206 305.214259 410.903599 294.920456 C 411.747991 284.626653 406.613582 282.201535 407.959078 272.860383 " transform="matrix(0.0259524,0.0268701,-0.0259524,0.0268701,11.107151,-7.965537)"/>
<path style="fill-rule:nonzero;fill:rgb(96.470588%,70.588237%,5.490196%);fill-opacity:1;stroke-width:1.1116;stroke-linecap:butt;stroke-linejoin:miter;stroke:rgb(52.156866%,20.392157%,3.921569%);stroke-opacity:1;stroke-miterlimit:4;" d="M 396.784172 251.317463 L 425.31788 313.248592 C 425.31788 313.248592 425.806056 314.487603 426.62026 314.133656 C 427.393734 313.878039 426.810586 312.599689 426.810586 312.599689 L 403.216341 248.682545 M 402.464326 272.793492 C 402.122868 282.213671 407.888319 287.366603 407.167168 295.823107 C 406.351045 304.240273 411.071813 308.960483 412.142946 312.284166 C 413.119107 315.56851 410.961218 317.554688 411.91093 317.948072 C 412.914884 318.479123 414.991506 315.883282 414.259913 311.202639 C 413.623291 306.561334 410.068627 305.204144 410.91235 294.840008 C 411.769586 284.711869 406.668357 282.253271 407.986745 272.892148 " transform="matrix(0.0140453,0.0351074,-0.0339084,0.0145419,17.858968,-8.178461)"/>
<path style=" stroke:none;fill-rule:nonzero;fill:rgb(52.156866%,20.392157%,3.921569%);fill-opacity:1;" d="M 15.15625 10.425781 C 15.175781 10.773438 15.363281 10.925781 15.328125 11.238281 C 15.40625 10.988281 15.210938 10.796875 15.222656 10.429688 M 14.941406 9.527344 L 15.660156 11.148438 L 15.058594 9.476562 "/>
<path style=" stroke:none;fill-rule:nonzero;fill:rgb(52.156866%,20.392157%,3.921569%);fill-opacity:1;" d="M 14.804688 10.417969 C 14.691406 10.742188 14.808594 10.957031 14.660156 11.234375 C 14.824219 11.039062 14.714844 10.78125 14.863281 10.449219 M 14.933594 9.503906 L 14.996094 11.28125 L 15.0625 9.503906 "/>
<path style=" stroke:none;fill-rule:nonzero;fill:rgb(52.156866%,20.392157%,3.921569%);fill-opacity:1;" d="M 14.480469 10.273438 C 14.253906 10.527344 14.285156 10.773438 14.046875 10.964844 C 14.269531 10.851562 14.261719 10.574219 14.519531 10.320312 M 14.941406 9.476562 L 14.339844 11.144531 L 15.054688 9.527344 "/>
<path style=" stroke:none;fill-rule:nonzero;fill:rgb(52.156866%,20.392157%,3.921569%);fill-opacity:1;" d="M 14.230469 10.007812 C 13.933594 10.152344 13.867188 10.394531 13.574219 10.476562 C 13.828125 10.460938 13.921875 10.199219 14.253906 10.070312 M 14.953125 9.457031 L 13.785156 10.757812 L 15.042969 9.546875 "/>
<path style="fill-rule:nonzero;fill:rgb(96.470588%,70.588237%,5.490196%);fill-opacity:1;stroke-width:1.1116;stroke-linecap:butt;stroke-linejoin:miter;stroke:rgb(52.156866%,20.392157%,3.921569%);stroke-opacity:1;stroke-miterlimit:4;" d="M 396.81333 251.277169 L 425.287838 313.326534 C 425.287838 313.326534 425.801818 314.497277 426.521391 314.177983 C 427.343759 313.85869 426.829779 312.687947 426.829779 312.687947 L 403.186686 248.722822 M 402.467114 272.776263 C 402.055929 282.248636 407.915305 287.463763 407.195732 295.871824 C 406.373364 304.279886 410.999186 309.069288 412.129943 312.262223 C 413.157903 315.561588 410.999186 317.477349 411.924351 318.009505 C 412.849515 318.43523 415.008232 315.880882 414.28866 311.197911 C 413.569088 306.621371 410.074022 305.131335 410.89639 294.913944 C 411.718759 284.696553 406.681752 282.248636 407.915305 272.776263 " transform="matrix(0.000000000000000003,0.038,-0.0367021,0.000000000000000003,24.175532,-5.7)"/>
<path style="fill-rule:nonzero;fill:rgb(96.470588%,70.588237%,5.490196%);fill-opacity:1;stroke-width:1.1116;stroke-linecap:butt;stroke-linejoin:miter;stroke:rgb(52.156866%,20.392157%,3.921569%);stroke-opacity:1;stroke-miterlimit:4;" d="M 396.865813 251.298025 L 425.211919 313.284813 C 425.211919 313.284813 425.700671 314.464767 426.555412 314.110722 C 427.410153 313.756677 426.9214 312.576722 426.9214 312.576722 L 403.133914 248.701693 M 402.447656 272.832391 C 402.097099 282.193612 407.960017 287.483526 407.202167 295.861451 C 406.444316 304.239377 410.990958 309.037708 412.145084 312.36126 C 413.163511 315.62582 410.965852 317.572922 411.915756 317.98586 C 412.86566 318.398798 414.954643 315.920711 414.247964 311.259819 C 413.636255 306.559588 410.053798 305.163485 410.919749 294.89758 C 411.690728 284.671013 406.683319 282.252342 407.915833 272.871403 " transform="matrix(-0.0140453,0.0351074,-0.0339084,-0.0145419,29.095203,-0.907477)"/>
<path style="fill-rule:nonzero;fill:rgb(96.470588%,70.588237%,5.490196%);fill-opacity:1;stroke-width:1.1116;stroke-linecap:butt;stroke-linejoin:miter;stroke:rgb(52.156866%,20.392157%,3.921569%);stroke-opacity:1;stroke-miterlimit:4;" d="M 396.843073 251.34975 L 425.354993 313.298045 C 425.354993 313.298045 425.746705 314.56201 426.553981 314.206282 C 427.361258 313.850554 426.896858 312.659277 426.896858 312.659277 L 403.155909 248.649303 M 402.466561 272.819172 C 402.187223 282.279996 407.896556 287.407827 407.155388 295.825318 C 406.414221 304.24281 411.007534 308.981499 412.17496 312.329558 C 413.19187 315.527101 410.933408 317.48453 411.904052 318.019047 C 412.799438 318.478307 414.972361 315.853836 414.373585 311.184546 C 413.626864 306.512685 410.055601 305.267431 410.911301 294.929213 C 411.767 284.590996 406.698286 282.284417 407.865299 272.839016 " transform="matrix(-0.0259524,0.0268701,-0.0259524,-0.0268701,31.86901,5.469491)"/>
<path style="fill-rule:nonzero;fill:rgb(96.470588%,70.588237%,5.490196%);fill-opacity:1;stroke-width:1.1116;stroke-linecap:butt;stroke-linejoin:miter;stroke:rgb(52.156866%,20.392157%,3.921569%);stroke-opacity:1;stroke-miterlimit:4;" d="M 396.794149 251.342241 L 425.306777 313.222092 C 425.306777 313.222092 425.798359 314.538369 426.526037 314.172188 C 427.352045 313.846737 426.821124 312.625432 426.821124 312.625432 L 403.205549 248.657173 M 402.417475 272.809191 C 402.082593 282.239326 407.982202 287.464662 407.175391 295.809193 C 406.42757 304.289424 411.048895 308.985278 412.091018 312.309847 C 413.17248 315.539444 410.969728 317.519943 411.913685 318.022208 C 412.896981 318.429502 414.962097 315.946929 414.274052 311.211305 C 413.684336 306.51641 410.065796 305.240095 410.892391 294.900977 C 411.817316 284.602589 406.684527 282.25399 407.924061 272.864776 " transform="matrix(-0.0339084,0.0145419,-0.0140453,-0.0351074,32.07466,12.460067)"/>
<path style=" stroke:none;fill-rule:nonzero;fill:rgb(52.156866%,20.392157%,3.921569%);fill-opacity:1;" d="M 14.105469 9.664062 C 13.769531 9.683594 13.625 9.875 13.320312 9.835938 C 13.5625 9.921875 13.75 9.71875 14.101562 9.730469 M 14.972656 9.441406 L 13.410156 10.179688 L 15.023438 9.558594 "/>
<path style=" stroke:none;fill-rule:nonzero;fill:rgb(52.156866%,20.392157%,3.921569%);fill-opacity:1;" d="M 14.113281 9.296875 C 13.796875 9.179688 13.589844 9.304688 13.324219 9.148438 C 13.515625 9.320312 13.761719 9.207031 14.085938 9.355469 M 14.996094 9.433594 L 13.28125 9.496094 L 14.996094 9.5625 "/>
<path style=" stroke:none;fill-rule:nonzero;fill:rgb(52.156866%,20.392157%,3.921569%);fill-opacity:1;" d="M 14.253906 8.960938 C 14.007812 8.730469 13.769531 8.761719 13.582031 8.507812 C 13.695312 8.746094 13.964844 8.738281 14.207031 9.003906 M 15.023438 9.4375 L 13.410156 8.816406 L 14.976562 9.554688 "/>
<path style=" stroke:none;fill-rule:nonzero;fill:rgb(52.156866%,20.392157%,3.921569%);fill-opacity:1;" d="M 14.511719 8.707031 C 14.371094 8.394531 14.136719 8.328125 14.058594 8.023438 C 14.074219 8.285156 14.328125 8.382812 14.449219 8.726562 M 15.042969 9.453125 L 13.785156 8.242188 L 14.957031 9.542969 "/>
<path style="fill-rule:nonzero;fill:rgb(96.470588%,70.588237%,5.490196%);fill-opacity:1;stroke-width:1.1116;stroke-linecap:butt;stroke-linejoin:miter;stroke:rgb(52.156866%,20.392157%,3.921569%);stroke-opacity:1;stroke-miterlimit:4;" d="M 396.807058 251.336356 L 425.224177 313.322377 C 425.224177 313.322377 425.862764 314.55593 426.607782 314.144746 C 427.3528 313.836358 426.927076 312.602805 426.927076 312.602805 L 403.192927 248.766455 M 402.447909 272.820732 C 402.128616 282.277969 407.98233 287.417771 407.13088 295.847048 C 406.385862 304.276325 411.068833 309.004943 412.133145 312.294417 C 413.197456 315.583891 410.962402 317.537016 411.920282 317.9482 C 412.878163 318.46218 415.006786 315.892279 414.261768 311.266456 C 413.623181 306.537838 410.004522 305.201489 410.962402 294.921883 C 411.70742 284.642278 406.705156 282.175173 407.98233 272.820732 " transform="matrix(-0.0367021,0.000000000000000005,-0.000000000000000004,-0.038,29.680851,19)"/>
<path style="fill-rule:nonzero;fill:rgb(96.470588%,70.588237%,5.490196%);fill-opacity:1;stroke-width:1.1116;stroke-linecap:butt;stroke-linejoin:miter;stroke:rgb(52.156866%,20.392157%,3.921569%);stroke-opacity:1;stroke-miterlimit:4;" d="M 396.853393 251.303726 L 425.294629 313.292139 C 425.294629 313.292139 425.766689 314.431794 426.553326 314.105959 C 427.339962 313.780124 426.867902 312.640469 426.867902 312.640469 L 403.146484 248.697047 M 402.420244 272.808719 C 402.047134 282.198316 407.908025 287.447991 407.102193 295.792905 C 406.473368 304.287032 411.05591 308.953559 412.098425 312.304768 C 413.199932 315.520277 410.997409 317.433982 411.902093 317.949375 C 412.944445 318.519011 414.969929 315.899778 414.281328 311.17805 C 413.533736 306.592023 410.0527 305.141006 410.878087 294.896475 C 411.703474 284.651944 406.747397 282.142923 407.966167 272.848105 " transform="matrix(-0.0339084,-0.0145419,0.0140453,-0.0351074,25.052013,24.093644)"/>
<path style="fill-rule:nonzero;fill:rgb(96.470588%,70.588237%,5.490196%);fill-opacity:1;stroke-width:1.1116;stroke-linecap:butt;stroke-linejoin:miter;stroke:rgb(52.156866%,20.392157%,3.921569%);stroke-opacity:1;stroke-miterlimit:4;" d="M 396.869802 251.385538 L 425.226356 313.307197 C 425.226356 313.307197 425.797576 314.480482 426.542446 314.171739 C 427.360004 313.935683 426.939299 312.611882 426.939299 312.611882 L 403.129793 248.61456 M 402.487629 272.807562 C 402.175183 282.278667 407.927798 287.429218 407.189507 295.872413 C 406.378528 304.24292 411.027975 309.042883 412.079737 312.352387 C 413.206757 315.586634 410.954155 317.548484 411.906807 318.049588 C 412.934717 318.475433 414.976967 315.851682 414.392175 311.202954 C 413.659438 306.556796 410.059182 305.214283 410.903575 294.92048 C 411.747968 284.626677 406.613558 282.201558 407.959055 272.860407 " transform="matrix(-0.0259524,-0.0268701,0.0259524,-0.0268701,18.892848,26.965537)"/>
<path style="fill-rule:nonzero;fill:rgb(96.470588%,70.588237%,5.490196%);fill-opacity:1;stroke-width:1.1116;stroke-linecap:butt;stroke-linejoin:miter;stroke:rgb(52.156866%,20.392157%,3.921569%);stroke-opacity:1;stroke-miterlimit:4;" d="M 396.784233 251.317488 L 425.31794 313.248617 C 425.31794 313.248617 425.806117 314.487629 426.620321 314.133681 C 427.393795 313.878064 426.810647 312.599714 426.810647 312.599714 L 403.216402 248.68257 M 402.464387 272.793517 C 402.122928 282.213696 407.88838 287.366628 407.167228 295.823133 C 406.351106 304.240298 411.071874 308.960509 412.143006 312.284191 C 413.119168 315.568535 410.961279 317.554713 411.910991 317.948097 C 412.914945 318.479148 414.991567 315.883307 414.259974 311.202664 C 413.623352 306.561359 410.068688 305.20417 410.912411 294.840033 C 411.769647 284.711894 406.668418 282.253296 407.986806 272.892173 " transform="matrix(-0.0140453,-0.0351074,0.0339084,-0.0145419,12.141032,27.178463)"/>
<path style=" stroke:none;fill-rule:nonzero;fill:rgb(52.156866%,20.392157%,3.921569%);fill-opacity:1;" d="M 14.84375 8.574219 C 14.824219 8.226562 14.636719 8.074219 14.671875 7.761719 C 14.59375 8.011719 14.789062 8.203125 14.777344 8.570312 M 15.058594 9.472656 L 14.339844 7.851562 L 14.941406 9.523438 "/>
<path style=" stroke:none;fill-rule:nonzero;fill:rgb(52.156866%,20.392157%,3.921569%);fill-opacity:1;" d="M 15.195312 8.582031 C 15.308594 8.257812 15.191406 8.042969 15.339844 7.765625 C 15.175781 7.960938 15.285156 8.21875 15.136719 8.550781 M 15.066406 9.496094 L 15.003906 7.71875 L 14.9375 9.496094 "/>
<path style=" stroke:none;fill-rule:nonzero;fill:rgb(52.156866%,20.392157%,3.921569%);fill-opacity:1;" d="M 15.519531 8.726562 C 15.746094 8.472656 15.714844 8.226562 15.953125 8.035156 C 15.730469 8.148438 15.738281 8.425781 15.480469 8.679688 M 15.058594 9.523438 L 15.660156 7.855469 L 14.945312 9.472656 "/>
<path style=" stroke:none;fill-rule:nonzero;fill:rgb(52.156866%,20.392157%,3.921569%);fill-opacity:1;" d="M 15.769531 8.992188 C 16.066406 8.847656 16.132812 8.605469 16.425781 8.523438 C 16.171875 8.539062 16.078125 8.800781 15.746094 8.929688 M 15.046875 9.542969 L 16.214844 8.242188 L 14.957031 9.453125 "/>
<path style="fill-rule:nonzero;fill:rgb(96.470588%,70.588237%,5.490196%);fill-opacity:1;stroke-width:1.1116;stroke-linecap:butt;stroke-linejoin:miter;stroke:rgb(52.156866%,20.392157%,3.921569%);stroke-opacity:1;stroke-miterlimit:4;" d="M 396.813347 251.277169 L 425.287854 313.326534 C 425.287854 313.326534 425.801835 314.497277 426.521407 314.177983 C 427.343775 313.85869 426.829795 312.687947 426.829795 312.687947 L 403.186702 248.722822 M 402.46713 272.776263 C 402.055946 282.248636 407.915321 287.463763 407.195749 295.871824 C 406.37338 304.279886 410.999203 309.069288 412.129959 312.262223 C 413.15792 315.561588 410.999203 317.477349 411.924367 318.009505 C 412.849532 318.43523 415.008249 315.880882 414.288676 311.197911 C 413.569104 306.621371 410.074038 305.131335 410.896407 294.913944 C 411.718775 284.696553 406.681768 282.248636 407.915321 272.776263 " transform="matrix(-0.000000000000000006,-0.038,0.0367021,-0.000000000000000007,5.824468,24.7)"/>
<path style="fill-rule:nonzero;fill:rgb(96.470588%,70.588237%,5.490196%);fill-opacity:1;stroke-width:1.1116;stroke-linecap:butt;stroke-linejoin:miter;stroke:rgb(52.156866%,20.392157%,3.921569%);stroke-opacity:1;stroke-miterlimit:4;" d="M 396.865789 251.298068 L 425.211894 313.284856 C 425.211894 313.284856 425.700647 314.464811 426.555388 314.110766 C 427.410129 313.756721 426.921376 312.576766 426.921376 312.576766 L 403.133889 248.701737 M 402.447632 272.832435 C 402.097075 282.193656 407.959993 287.483569 407.202143 295.861495 C 406.444292 304.23942 410.990933 309.037752 412.14506 312.361304 C 413.163486 315.625864 410.965828 317.572965 411.915732 317.985904 C 412.865636 318.398842 414.954619 315.920755 414.247939 311.259862 C 413.636231 306.559632 410.053774 305.163529 410.919724 294.897624 C 411.690704 284.671057 406.683294 282.252385 407.915809 272.871446 " transform="matrix(0.0140453,-0.0351074,0.0339084,0.0145419,0.904796,19.907475)"/>
<path style="fill-rule:nonzero;fill:rgb(96.470588%,70.588237%,5.490196%);fill-opacity:1;stroke-width:1.1116;stroke-linecap:butt;stroke-linejoin:miter;stroke:rgb(52.156866%,20.392157%,3.921569%);stroke-opacity:1;stroke-miterlimit:4;" d="M 396.843099 251.34973 L 425.355019 313.298024 C 425.355019 313.298024 425.746731 314.56199 426.554007 314.206262 C 427.361284 313.850534 426.896884 312.659256 426.896884 312.659256 L 403.155935 248.649282 M 402.466587 272.819152 C 402.187249 282.279975 407.896582 287.407806 407.155415 295.825298 C 406.414247 304.24279 411.00756 308.981478 412.174986 312.329537 C 413.191896 315.52708 410.933434 317.48451 411.904079 318.019027 C 412.799465 318.478286 414.972387 315.853816 414.373612 311.184525 C 413.62689 306.512665 410.055628 305.26741 410.911327 294.929193 C 411.767026 284.590975 406.698313 282.284397 407.865325 272.838995 " transform="matrix(0.0259524,-0.0268701,0.0259524,0.0268701,-1.86901,13.53051)"/>
<path style="fill-rule:nonzero;fill:rgb(96.470588%,70.588237%,5.490196%);fill-opacity:1;stroke-width:1.1116;stroke-linecap:butt;stroke-linejoin:miter;stroke:rgb(52.156866%,20.392157%,3.921569%);stroke-opacity:1;stroke-miterlimit:4;" d="M 396.794182 251.342237 L 425.30681 313.222088 C 425.30681 313.222088 425.798393 314.538365 426.52607 314.172184 C 427.352078 313.846733 426.821157 312.625428 426.821157 312.625428 L 403.205582 248.657169 M 402.417509 272.809187 C 402.082626 282.239322 407.982236 287.464658 407.175424 295.809189 C 406.427603 304.28942 411.048928 308.985274 412.091052 312.309842 C 413.172513 315.53944 410.969761 317.519939 411.913719 318.022204 C 412.897014 318.429497 414.96213 315.946925 414.274085 311.211301 C 413.684369 306.516406 410.065829 305.240091 410.892424 294.900973 C 411.817349 284.602585 406.68456 282.253986 407.924094 272.864772 " transform="matrix(0.0339084,-0.0145419,0.0140453,0.0351074,-2.074662,6.539933)"/>
<path style=" stroke:none;fill-rule:nonzero;fill:rgb(52.156866%,20.392157%,3.921569%);fill-opacity:1;" d="M 15.894531 9.335938 C 16.230469 9.316406 16.375 9.125 16.679688 9.164062 C 16.4375 9.078125 16.25 9.28125 15.898438 9.269531 M 15.027344 9.558594 L 16.589844 8.820312 L 14.976562 9.441406 "/>
<path style=" stroke:none;fill-rule:nonzero;fill:rgb(52.156866%,20.392157%,3.921569%);fill-opacity:1;" d="M 15.886719 9.703125 C 16.203125 9.820312 16.410156 9.695312 16.675781 9.851562 C 16.484375 9.679688 16.238281 9.792969 15.914062 9.644531 M 15.003906 9.566406 L 16.71875 9.503906 L 15.003906 9.4375 "/>
<path style=" stroke:none;fill-rule:nonzero;fill:rgb(52.156866%,20.392157%,3.921569%);fill-opacity:1;" d="M 15.746094 10.039062 C 15.992188 10.269531 16.230469 10.238281 16.417969 10.492188 C 16.304688 10.253906 16.035156 10.261719 15.792969 9.996094 M 14.976562 9.5625 L 16.589844 10.183594 L 15.023438 9.445312 "/>
<path style=" stroke:none;fill-rule:nonzero;fill:rgb(52.156866%,20.392157%,3.921569%);fill-opacity:1;" d="M 15.488281 10.292969 C 15.628906 10.605469 15.863281 10.671875 15.941406 10.976562 C 15.925781 10.714844 15.671875 10.617188 15.550781 10.273438 M 14.957031 9.546875 L 16.214844 10.757812 L 15.042969 9.457031 "/>
<path style="fill-rule:nonzero;fill:rgb(96.470588%,70.588237%,5.490196%);fill-opacity:1;stroke-width:1.5;stroke-linecap:butt;stroke-linejoin:miter;stroke:rgb(52.156866%,20.392157%,3.921569%);stroke-opacity:1;stroke-miterlimit:4;" d="M 427.778525 250.000007 C 427.778525 234.683395 415.326079 222.245072 399.999993 222.245072 C 384.673906 222.245072 372.221461 234.683395 372.221461 250.000007 C 372.221461 265.316619 384.673906 277.754942 399.999993 277.754942 C 415.326079 277.754942 427.778525 265.316619 427.778525 250.000007 Z M 427.778525 250.000007 " transform="matrix(0.0367021,0,0,0.038,0.319149,0)"/>
<path style=" stroke:none;fill-rule:nonzero;fill:rgb(51.764709%,20.784314%,6.666667%);fill-opacity:1;" d="M 15.347656 9.273438 C 15.277344 9.273438 15.210938 9.304688 15.171875 9.371094 C 15.25 9.445312 15.425781 9.453125 15.542969 9.363281 C 15.492188 9.304688 15.417969 9.273438 15.347656 9.273438 Z M 15.347656 9.292969 C 15.414062 9.289062 15.476562 9.320312 15.484375 9.355469 C 15.410156 9.445312 15.28125 9.4375 15.203125 9.371094 C 15.238281 9.3125 15.292969 9.292969 15.347656 9.292969 Z M 15.347656 9.292969 "/>
<path style=" stroke:none;fill-rule:nonzero;fill:rgb(52.156866%,20.392157%,3.921569%);fill-opacity:1;" d="M 15.363281 9.222656 C 15.257812 9.222656 15.234375 9.25 15.1875 9.289062 C 15.140625 9.328125 15.117188 9.320312 15.109375 9.328125 C 15.101562 9.335938 15.109375 9.363281 15.125 9.355469 C 15.140625 9.347656 15.171875 9.328125 15.21875 9.289062 C 15.265625 9.25 15.3125 9.25 15.363281 9.25 C 15.5 9.25 15.578125 9.371094 15.597656 9.363281 C 15.609375 9.355469 15.515625 9.222656 15.363281 9.222656 Z M 15.363281 9.222656 "/>
<path style=" stroke:none;fill-rule:nonzero;fill:rgb(52.156866%,20.392157%,3.921569%);fill-opacity:1;" d="M 15.644531 9.273438 C 15.464844 9.109375 15.234375 9.085938 15.109375 9.207031 C 15.078125 9.25 15.058594 9.296875 15.050781 9.34375 C 15.035156 9.4375 15.0625 9.535156 15.132812 9.636719 C 15.125 9.636719 15.109375 9.644531 15.101562 9.652344 C 15.039062 9.53125 15.015625 9.40625 15.039062 9.28125 C 15.042969 9.25 15.050781 9.222656 15.0625 9.191406 C 15.234375 9.042969 15.472656 9.027344 15.644531 9.273438 Z M 15.644531 9.273438 "/>
<path style=" stroke:none;fill-rule:nonzero;fill:rgb(52.156866%,20.392157%,3.921569%);fill-opacity:1;" d="M 15.417969 9.355469 C 15.417969 9.3125 15.382812 9.28125 15.347656 9.28125 C 15.308594 9.28125 15.273438 9.3125 15.273438 9.355469 C 15.273438 9.394531 15.308594 9.429688 15.347656 9.429688 C 15.382812 9.429688 15.417969 9.394531 15.417969 9.355469 Z M 15.417969 9.355469 "/>
<path style=" stroke:none;fill-rule:nonzero;fill:rgb(52.156866%,20.392157%,3.921569%);fill-opacity:1;" d="M 15.546875 9.402344 C 15.417969 9.507812 15.28125 9.5 15.203125 9.453125 C 15.125 9.402344 15.125 9.386719 15.140625 9.386719 C 15.15625 9.386719 15.171875 9.402344 15.234375 9.4375 C 15.300781 9.46875 15.390625 9.46875 15.546875 9.402344 Z M 15.546875 9.402344 "/>
<path style=" stroke:none;fill-rule:nonzero;fill:rgb(52.156866%,20.392157%,3.921569%);fill-opacity:1;" d="M 14.84375 9.644531 C 14.808594 9.652344 14.785156 9.683594 14.785156 9.71875 C 14.785156 9.757812 14.820312 9.792969 14.859375 9.792969 C 14.878906 9.792969 14.902344 9.777344 14.914062 9.761719 C 14.941406 9.78125 14.980469 9.78125 15 9.785156 C 15.003906 9.785156 15.007812 9.785156 15.011719 9.785156 C 15.03125 9.78125 15.066406 9.78125 15.09375 9.761719 C 15.105469 9.777344 15.128906 9.792969 15.152344 9.792969 C 15.191406 9.792969 15.222656 9.757812 15.222656 9.71875 C 15.222656 9.683594 15.199219 9.652344 15.164062 9.644531 C 15.183594 9.652344 15.195312 9.671875 15.195312 9.691406 C 15.195312 9.71875 15.175781 9.742188 15.148438 9.742188 C 15.125 9.742188 15.105469 9.71875 15.101562 9.695312 C 15.09375 9.710938 15.066406 9.757812 15.003906 9.761719 C 14.945312 9.757812 14.914062 9.710938 14.90625 9.695312 C 14.90625 9.71875 14.886719 9.742188 14.859375 9.742188 C 14.832031 9.742188 14.8125 9.71875 14.8125 9.691406 C 14.8125 9.671875 14.824219 9.652344 14.84375 9.644531 Z M 14.84375 9.644531 "/>
<path style=" stroke:none;fill-rule:nonzero;fill:rgb(52.156866%,20.392157%,3.921569%);fill-opacity:1;" d="M 14.921875 9.859375 C 14.84375 9.859375 14.8125 9.933594 14.742188 9.984375 C 14.78125 9.96875 14.808594 9.933594 14.867188 9.90625 C 14.921875 9.871094 14.96875 9.910156 14.996094 9.910156 L 15 9.910156 C 15.03125 9.910156 15.078125 9.871094 15.132812 9.90625 C 15.1875 9.933594 15.21875 9.96875 15.257812 9.984375 C 15.1875 9.933594 15.15625 9.859375 15.078125 9.859375 C 15.0625 9.859375 15.03125 9.871094 15 9.886719 L 14.996094 9.886719 C 14.96875 9.871094 14.933594 9.859375 14.921875 9.859375 Z M 14.921875 9.859375 "/>
<path style=" stroke:none;fill-rule:nonzero;fill:rgb(52.156866%,20.392157%,3.921569%);fill-opacity:1;" d="M 14.894531 9.957031 C 14.863281 9.960938 14.824219 9.964844 14.761719 9.984375 C 14.90625 9.949219 14.933594 10 14.996094 10 L 15 10 C 15.0625 10 15.09375 9.949219 15.234375 9.984375 C 15.078125 9.933594 15.046875 9.96875 15 9.96875 L 14.996094 9.96875 C 14.96875 9.96875 14.949219 9.957031 14.894531 9.957031 Z M 14.894531 9.957031 "/>
<path style=" stroke:none;fill-rule:nonzero;fill:rgb(52.156866%,20.392157%,3.921569%);fill-opacity:1;" d="M 14.769531 9.984375 C 14.761719 9.984375 14.753906 9.984375 14.742188 9.984375 C 14.90625 10 14.824219 10.097656 14.996094 10.097656 L 15 10.097656 C 15.171875 10.097656 15.09375 10 15.257812 9.984375 C 15.085938 9.96875 15.140625 10.074219 15 10.074219 L 14.996094 10.074219 C 14.867188 10.074219 14.90625 9.980469 14.769531 9.984375 Z M 14.769531 9.984375 "/>
<path style=" stroke:none;fill-rule:nonzero;fill:rgb(52.156866%,20.392157%,3.921569%);fill-opacity:1;" d="M 15.140625 10.246094 C 15.140625 10.164062 15.078125 10.101562 15 10.101562 C 14.921875 10.101562 14.859375 10.164062 14.859375 10.246094 C 14.875 10.179688 14.933594 10.132812 15 10.132812 C 15.066406 10.132812 15.125 10.179688 15.140625 10.246094 Z M 15.140625 10.246094 "/>
<path style=" stroke:none;fill-rule:nonzero;fill:rgb(52.156866%,20.392157%,3.921569%);fill-opacity:1;" d="M 14.367188 9.273438 C 14.546875 9.109375 14.773438 9.085938 14.898438 9.207031 C 14.929688 9.25 14.949219 9.296875 14.957031 9.34375 C 14.976562 9.4375 14.949219 9.535156 14.875 9.636719 C 14.882812 9.636719 14.898438 9.644531 14.90625 9.652344 C 14.96875 9.53125 14.988281 9.40625 14.96875 9.28125 C 14.96875 9.25 14.957031 9.222656 14.949219 9.191406 C 14.773438 9.042969 14.539062 9.027344 14.367188 9.273438 Z M 14.367188 9.273438 "/>
<path style=" stroke:none;fill-rule:nonzero;fill:rgb(52.156866%,20.392157%,3.921569%);fill-opacity:1;" d="M 14.648438 9.222656 C 14.75 9.222656 14.773438 9.25 14.820312 9.289062 C 14.867188 9.328125 14.890625 9.320312 14.898438 9.328125 C 14.90625 9.335938 14.898438 9.363281 14.882812 9.355469 C 14.867188 9.347656 14.835938 9.328125 14.789062 9.289062 C 14.742188 9.25 14.695312 9.25 14.648438 9.25 C 14.507812 9.25 14.429688 9.371094 14.410156 9.363281 C 14.398438 9.355469 14.492188 9.222656 14.648438 9.222656 Z M 14.648438 9.222656 "/>
<path style=" stroke:none;fill-rule:nonzero;fill:rgb(51.764709%,20.784314%,6.666667%);fill-opacity:1;" d="M 14.644531 9.273438 C 14.574219 9.273438 14.507812 9.304688 14.46875 9.371094 C 14.546875 9.445312 14.722656 9.453125 14.839844 9.363281 C 14.785156 9.304688 14.714844 9.273438 14.644531 9.273438 Z M 14.640625 9.292969 C 14.707031 9.289062 14.773438 9.320312 14.78125 9.355469 C 14.703125 9.445312 14.578125 9.4375 14.5 9.371094 C 14.535156 9.3125 14.589844 9.292969 14.640625 9.292969 Z M 14.640625 9.292969 "/>
<path style=" stroke:none;fill-rule:nonzero;fill:rgb(52.156866%,20.392157%,3.921569%);fill-opacity:1;" d="M 14.722656 9.355469 C 14.722656 9.3125 14.691406 9.28125 14.652344 9.28125 C 14.613281 9.28125 14.582031 9.3125 14.582031 9.355469 C 14.582031 9.394531 14.613281 9.429688 14.652344 9.429688 C 14.691406 9.429688 14.722656 9.394531 14.722656 9.355469 Z M 14.722656 9.355469 "/>
<path style=" stroke:none;fill-rule:nonzero;fill:rgb(52.156866%,20.392157%,3.921569%);fill-opacity:1;" d="M 14.457031 9.402344 C 14.59375 9.507812 14.726562 9.5 14.804688 9.453125 C 14.882812 9.402344 14.882812 9.386719 14.867188 9.386719 C 14.851562 9.386719 14.835938 9.402344 14.773438 9.4375 C 14.710938 9.46875 14.617188 9.46875 14.457031 9.402344 Z M 14.457031 9.402344 "/>
</g>
</svg>
