<svg xmlns="http://www.w3.org/2000/svg" width="30" height="19"><path d="M.32 0h29.36v19H.32Zm0 0" style="stroke:none;fill-rule:nonzero;fill:#74acdf;fill-opacity:1"/><path d="M.32 6.336h29.36v6.328H.32Zm0 0" style="stroke:none;fill-rule:nonzero;fill:#fff;fill-opacity:1"/><path d="m396.807 251.336 28.417 61.986s.639 1.234 1.384.823c.745-.309.32-1.542.32-1.542l-23.735-63.837m-.745 24.055c-.32 9.457 5.534 14.597 4.683 23.026-.745 8.43 3.938 13.158 5.002 16.447 1.064 3.29-1.17 5.243-.213 5.654.958.514 3.087-2.056 2.342-6.682-.639-4.728-4.257-6.065-3.3-16.344.745-10.28-4.257-12.747-2.98-22.101" style="fill-rule:nonzero;fill:#f6b40e;fill-opacity:1;stroke-width:1.1116;stroke-linecap:butt;stroke-linejoin:miter;stroke:#85340a;stroke-opacity:1;stroke-miterlimit:4" transform="matrix(.0367 0 0 .038 .32 0)"/><path d="m396.853 251.304 28.442 61.988s.472 1.14 1.258.814c.787-.326.315-1.466.315-1.466l-23.721-63.943m-.727 24.112c-.373 9.39 5.488 14.639 4.682 22.984-.629 8.494 3.954 13.16 4.996 16.512 1.102 3.215-1.1 5.129-.196 5.644 1.042.57 3.068-2.05 2.38-6.771-.748-4.586-4.23-6.037-3.404-16.282.825-10.244-4.13-12.753-2.912-22.048" style="fill-rule:nonzero;fill:#f6b40e;fill-opacity:1;stroke-width:1.1116;stroke-linecap:butt;stroke-linejoin:miter;stroke:#85340a;stroke-opacity:1;stroke-miterlimit:4" transform="matrix(.0339 .01454 -.01405 .0351 4.948 -5.094)"/><path d="m396.87 251.386 28.356 61.921s.572 1.173 1.316.865c.818-.236.397-1.56.397-1.56l-23.81-63.997m-.641 24.193c-.313 9.47 5.44 14.621 4.702 23.064-.811 8.37 3.838 13.17 4.89 16.48 1.127 3.235-1.126 5.196-.173 5.698 1.028.425 3.07-2.198 2.485-6.847-.733-4.646-4.333-5.989-3.488-16.283.844-10.293-4.29-12.718-2.945-22.06" style="fill-rule:nonzero;fill:#f6b40e;fill-opacity:1;stroke-width:1.1116;stroke-linecap:butt;stroke-linejoin:miter;stroke:#85340a;stroke-opacity:1;stroke-miterlimit:4" transform="scale(.0367 .038)rotate(45 404.347 260.496)"/><path d="m396.784 251.317 28.534 61.932s.488 1.239 1.302.885c.774-.256.19-1.534.19-1.534l-23.594-63.917m-.752 24.11c-.341 9.42 5.424 14.574 4.703 23.03-.816 8.417 3.905 13.137 4.976 16.461.976 3.285-1.182 5.27-.232 5.664 1.004.531 3.08-2.065 2.349-6.745-.637-4.642-4.191-5.999-3.348-16.363.858-10.128-4.244-12.587-2.925-21.948" style="fill-rule:nonzero;fill:#f6b40e;fill-opacity:1;stroke-width:1.1116;stroke-linecap:butt;stroke-linejoin:miter;stroke:#85340a;stroke-opacity:1;stroke-miterlimit:4" transform="matrix(.01405 .0351 -.0339 .01454 17.859 -8.178)"/><path d="M15.156 10.426c.02.347.207.5.172.812.078-.25-.117-.441-.105-.808m-.282-.903.72 1.621-.602-1.671" style="stroke:none;fill-rule:nonzero;fill:#85340a;fill-opacity:1"/><path d="M14.805 10.418c-.114.324.004.539-.145.816.164-.195.055-.453.203-.785m.07-.945.063 1.777.066-1.777" style="stroke:none;fill-rule:nonzero;fill:#85340a;fill-opacity:1"/><path d="M14.48 10.273c-.226.254-.195.5-.433.692.223-.113.215-.39.473-.645m.421-.843-.601 1.668.715-1.618" style="stroke:none;fill-rule:nonzero;fill:#85340a;fill-opacity:1"/><path d="M14.23 10.008c-.296.144-.363.387-.656.469.254-.016.348-.278.68-.407m.7-.613-1.169 1.3 1.258-1.21" style="stroke:none;fill-rule:nonzero;fill:#85340a;fill-opacity:1"/><path d="m396.813 251.277 28.475 62.05s.514 1.17 1.233.851c.823-.32.309-1.49.309-1.49l-23.643-63.965m-.72 24.053c-.411 9.473 5.448 14.688 4.729 23.096-.823 8.408 3.803 13.197 4.934 16.39 1.028 3.3-1.13 5.215-.206 5.748.926.425 3.084-2.13 2.365-6.812-.72-4.577-4.215-6.067-3.393-16.284s-4.214-12.665-2.98-22.138" style="fill-rule:nonzero;fill:#f6b40e;fill-opacity:1;stroke-width:1.1116;stroke-linecap:butt;stroke-linejoin:miter;stroke:#85340a;stroke-opacity:1;stroke-miterlimit:4" transform="matrix(0 .038 -.0367 0 24.176 -5.7)"/><path d="m396.866 251.298 28.346 61.987s.489 1.18 1.343.826c.855-.354.366-1.534.366-1.534l-23.787-63.875m-.686 24.13c-.35 9.362 5.512 14.652 4.754 23.03-.758 8.377 3.789 13.176 4.943 16.5 1.019 3.264-1.18 5.21-.23 5.624s3.04-2.065 2.333-6.726c-.612-4.7-4.194-6.097-3.328-16.362.77-10.227-4.237-12.646-3.004-22.027" style="fill-rule:nonzero;fill:#f6b40e;fill-opacity:1;stroke-width:1.1116;stroke-linecap:butt;stroke-linejoin:miter;stroke:#85340a;stroke-opacity:1;stroke-miterlimit:4" transform="matrix(-.01405 .0351 -.0339 -.01454 29.095 -.907)"/><path d="m396.843 251.35 28.512 61.948s.392 1.264 1.199.908c.807-.355.343-1.547.343-1.547l-23.741-64.01m-.69 24.17c-.279 9.461 5.43 14.589 4.69 23.006-.742 8.418 3.852 13.156 5.019 16.505 1.017 3.197-1.242 5.155-.27 5.689.894.46 3.067-2.165 2.469-6.834-.747-4.672-4.318-5.918-3.463-16.256.856-10.338-4.213-12.645-3.046-22.09" style="fill-rule:nonzero;fill:#f6b40e;fill-opacity:1;stroke-width:1.1116;stroke-linecap:butt;stroke-linejoin:miter;stroke:#85340a;stroke-opacity:1;stroke-miterlimit:4" transform="scale(-.0367 -.038)rotate(-45 -607.9 976.179)"/><path d="m396.794 251.342 28.513 61.88s.491 1.316 1.219.95c.826-.325.295-1.547.295-1.547l-23.615-63.968m-.789 24.152c-.334 9.43 5.565 14.656 4.758 23-.747 8.48 3.874 13.176 4.916 16.5 1.081 3.23-1.121 5.21-.177 5.713.983.408 3.048-2.075 2.36-6.81-.59-4.696-4.208-5.972-3.382-16.311.925-10.298-4.207-12.647-2.968-22.036" style="fill-rule:nonzero;fill:#f6b40e;fill-opacity:1;stroke-width:1.1116;stroke-linecap:butt;stroke-linejoin:miter;stroke:#85340a;stroke-opacity:1;stroke-miterlimit:4" transform="matrix(-.0339 .01454 -.01405 -.0351 32.075 12.46)"/><path d="M14.105 9.664c-.335.02-.48.211-.785.172.242.086.43-.117.782-.106m.87-.289-1.562.739 1.613-.621" style="stroke:none;fill-rule:nonzero;fill:#85340a;fill-opacity:1"/><path d="M14.113 9.297c-.316-.117-.523.008-.789-.149.192.172.438.059.762.207m.91.079-1.715.062 1.715.066" style="stroke:none;fill-rule:nonzero;fill:#85340a;fill-opacity:1"/><path d="M14.254 8.96c-.246-.23-.484-.198-.672-.452.113.238.383.23.625.496m.816.434-1.613-.622 1.567.739" style="stroke:none;fill-rule:nonzero;fill:#85340a;fill-opacity:1"/><path d="M14.512 8.707c-.14-.312-.375-.379-.453-.684.015.262.27.36.39.704m.594.726-1.258-1.21 1.172 1.3" style="stroke:none;fill-rule:nonzero;fill:#85340a;fill-opacity:1"/><path d="m396.807 251.336 28.417 61.986s.639 1.234 1.384.823c.745-.309.32-1.542.32-1.542l-23.735-63.837m-.745 24.055c-.32 9.457 5.534 14.597 4.683 23.026-.745 8.43 3.938 13.158 5.002 16.447 1.064 3.29-1.17 5.243-.213 5.654.958.514 3.087-2.056 2.342-6.682-.639-4.728-4.257-6.065-3.3-16.344.745-10.28-4.257-12.747-2.98-22.101" style="fill-rule:nonzero;fill:#f6b40e;fill-opacity:1;stroke-width:1.1116;stroke-linecap:butt;stroke-linejoin:miter;stroke:#85340a;stroke-opacity:1;stroke-miterlimit:4" transform="matrix(-.0367 0 0 -.038 29.68 19)"/><path d="m396.853 251.304 28.442 61.988s.472 1.14 1.258.814c.787-.326.315-1.466.315-1.466l-23.722-63.943m-.726 24.112c-.373 9.39 5.488 14.639 4.682 22.984-.629 8.494 3.954 13.16 4.996 16.512 1.102 3.215-1.1 5.129-.196 5.644 1.042.57 3.068-2.05 2.38-6.771-.748-4.586-4.23-6.037-3.404-16.282.825-10.244-4.13-12.753-2.912-22.048" style="fill-rule:nonzero;fill:#f6b40e;fill-opacity:1;stroke-width:1.1116;stroke-linecap:butt;stroke-linejoin:miter;stroke:#85340a;stroke-opacity:1;stroke-miterlimit:4" transform="matrix(-.0339 -.01454 .01405 -.0351 25.052 24.094)"/><path d="m396.87 251.386 28.356 61.921s.572 1.173 1.316.865c.818-.236.397-1.56.397-1.56l-23.81-63.997m-.641 24.193c-.313 9.47 5.44 14.621 4.702 23.064-.811 8.37 3.838 13.17 4.89 16.48 1.127 3.235-1.126 5.196-.173 5.698 1.028.425 3.07-2.198 2.485-6.847-.733-4.646-4.333-5.989-3.488-16.283.844-10.293-4.29-12.718-2.945-22.06" style="fill-rule:nonzero;fill:#f6b40e;fill-opacity:1;stroke-width:1.1116;stroke-linecap:butt;stroke-linejoin:miter;stroke:#85340a;stroke-opacity:1;stroke-miterlimit:4" transform="scale(-.0367 -.038)rotate(45 599.205 -976.18)"/><path d="m396.784 251.317 28.534 61.932s.488 1.239 1.302.885c.774-.256.19-1.534.19-1.534l-23.594-63.917m-.752 24.11c-.341 9.42 5.424 14.574 4.703 23.03-.816 8.417 3.905 13.138 4.976 16.461.976 3.285-1.182 5.27-.232 5.664 1.004.531 3.08-2.065 2.349-6.745-.637-4.642-4.191-5.999-3.348-16.363.858-10.128-4.244-12.587-2.925-21.948" style="fill-rule:nonzero;fill:#f6b40e;fill-opacity:1;stroke-width:1.1116;stroke-linecap:butt;stroke-linejoin:miter;stroke:#85340a;stroke-opacity:1;stroke-miterlimit:4" transform="matrix(-.01405 -.0351 .0339 -.01454 12.141 27.178)"/><path d="M14.844 8.574c-.02-.347-.207-.5-.172-.812-.078.25.117.441.105.808m.282.903-.72-1.621.602 1.671" style="stroke:none;fill-rule:nonzero;fill:#85340a;fill-opacity:1"/><path d="M15.195 8.582c.114-.324-.004-.539.145-.816-.164.195-.055.453-.203.785m-.07.945-.063-1.777-.066 1.777" style="stroke:none;fill-rule:nonzero;fill:#85340a;fill-opacity:1"/><path d="M15.52 8.727c.226-.254.195-.5.433-.692-.223.113-.215.39-.473.645m-.421.843.601-1.668-.715 1.618" style="stroke:none;fill-rule:nonzero;fill:#85340a;fill-opacity:1"/><path d="M15.77 8.992c.296-.144.363-.387.656-.469-.254.016-.348.278-.68.407m-.7.613 1.169-1.3-1.258 1.21" style="stroke:none;fill-rule:nonzero;fill:#85340a;fill-opacity:1"/><path d="m396.813 251.277 28.475 62.05s.514 1.17 1.233.851c.823-.32.309-1.49.309-1.49l-23.643-63.965m-.72 24.053c-.411 9.473 5.448 14.688 4.729 23.096-.823 8.408 3.803 13.197 4.934 16.39 1.028 3.3-1.13 5.215-.206 5.748.926.425 3.084-2.13 2.365-6.812-.72-4.577-4.215-6.067-3.393-16.284s-4.214-12.665-2.98-22.138" style="fill-rule:nonzero;fill:#f6b40e;fill-opacity:1;stroke-width:1.1116;stroke-linecap:butt;stroke-linejoin:miter;stroke:#85340a;stroke-opacity:1;stroke-miterlimit:4" transform="matrix(0 -.038 .0367 0 5.824 24.7)"/><path d="m396.866 251.298 28.346 61.987s.489 1.18 1.343.826c.855-.354.366-1.534.366-1.534l-23.787-63.875m-.686 24.13c-.35 9.362 5.512 14.652 4.754 23.03-.758 8.377 3.789 13.176 4.943 16.5 1.018 3.264-1.18 5.211-.23 5.624s3.04-2.065 2.333-6.726c-.612-4.7-4.194-6.096-3.328-16.362.77-10.227-4.237-12.646-3.004-22.027" style="fill-rule:nonzero;fill:#f6b40e;fill-opacity:1;stroke-width:1.1116;stroke-linecap:butt;stroke-linejoin:miter;stroke:#85340a;stroke-opacity:1;stroke-miterlimit:4" transform="matrix(.01405 -.0351 .0339 .01454 .905 19.907)"/><path d="m396.843 251.35 28.512 61.948s.392 1.264 1.199.908c.807-.355.343-1.547.343-1.547l-23.741-64.01m-.69 24.17c-.279 9.461 5.43 14.589 4.69 23.006-.742 8.418 3.852 13.156 5.019 16.505 1.017 3.197-1.242 5.155-.27 5.689.894.46 3.067-2.165 2.469-6.834-.747-4.672-4.318-5.918-3.463-16.256.856-10.338-4.213-12.645-3.046-22.09" style="fill-rule:nonzero;fill:#f6b40e;fill-opacity:1;stroke-width:1.1116;stroke-linecap:butt;stroke-linejoin:miter;stroke:#85340a;stroke-opacity:1;stroke-miterlimit:4" transform="scale(.0367 .038)rotate(-45 404.347 239.503)"/><path d="m396.794 251.342 28.513 61.88s.491 1.316 1.22.95c.825-.325.294-1.547.294-1.547l-23.615-63.968m-.788 24.152c-.335 9.43 5.564 14.656 4.757 23-.747 8.48 3.874 13.176 4.916 16.5 1.082 3.23-1.121 5.21-.177 5.713.983.407 3.048-2.075 2.36-6.81-.59-4.696-4.208-5.972-3.382-16.311.925-10.298-4.207-12.647-2.968-22.036" style="fill-rule:nonzero;fill:#f6b40e;fill-opacity:1;stroke-width:1.1116;stroke-linecap:butt;stroke-linejoin:miter;stroke:#85340a;stroke-opacity:1;stroke-miterlimit:4" transform="matrix(.0339 -.01454 .01405 .0351 -2.075 6.54)"/><path d="M15.895 9.336c.335-.02.48-.211.785-.172-.242-.086-.43.117-.782.106m-.87.289 1.562-.739-1.613.621" style="stroke:none;fill-rule:nonzero;fill:#85340a;fill-opacity:1"/><path d="M15.887 9.703c.316.117.523-.008.789.149-.192-.172-.438-.059-.762-.207m-.91-.079 1.715-.062-1.715-.066" style="stroke:none;fill-rule:nonzero;fill:#85340a;fill-opacity:1"/><path d="M15.746 10.04c.246.23.484.198.672.452-.113-.238-.383-.23-.625-.496m-.816-.434 1.613.622-1.567-.739" style="stroke:none;fill-rule:nonzero;fill:#85340a;fill-opacity:1"/><path d="M15.488 10.293c.14.312.375.379.453.684-.015-.262-.27-.36-.39-.704m-.594-.726 1.258 1.21-1.172-1.3" style="stroke:none;fill-rule:nonzero;fill:#85340a;fill-opacity:1"/><path d="M427.779 250c0-15.317-12.453-27.755-27.779-27.755S372.221 234.683 372.221 250s12.453 27.755 27.779 27.755 27.779-12.438 27.779-27.755Zm0 0" style="fill-rule:nonzero;fill:#f6b40e;fill-opacity:1;stroke-width:1.5;stroke-linecap:butt;stroke-linejoin:miter;stroke:#85340a;stroke-opacity:1;stroke-miterlimit:4" transform="matrix(.0367 0 0 .038 .32 0)"/><path d="M15.348 9.273a.2.2 0 0 0-.176.098c.078.074.254.082.371-.008a.26.26 0 0 0-.195-.09m0 .02c.066-.004.129.027.136.062-.074.09-.203.082-.28.016a.16.16 0 0 1 .144-.078m0 0" style="stroke:none;fill-rule:nonzero;fill:#843511;fill-opacity:1"/><path d="M15.363 9.223c-.105 0-.129.027-.175.066-.047.04-.07.031-.079.04-.007.007 0 .034.016.026a.6.6 0 0 0 .094-.066c.047-.039.094-.039.144-.039.137 0 .215.121.235.113.011-.008-.082-.14-.235-.14m0 0" style="stroke:none;fill-rule:nonzero;fill:#85340a;fill-opacity:1"/><path d="M15.645 9.273c-.18-.164-.41-.187-.536-.066a.3.3 0 0 0-.058.137.4.4 0 0 0 .082.293.06.06 0 0 0-.031.015.57.57 0 0 1-.04-.46c.172-.149.41-.165.583.081m0 0" style="stroke:none;fill-rule:nonzero;fill:#85340a;fill-opacity:1"/><path d="M15.418 9.355a.073.073 0 0 0-.07-.074.074.074 0 0 0-.075.074c0 .04.036.075.075.075.035 0 .07-.035.07-.075m0 0" style="stroke:none;fill-rule:nonzero;fill:#85340a;fill-opacity:1"/><path d="M15.547 9.402c-.129.106-.266.098-.344.051-.078-.05-.078-.066-.062-.066.015 0 .03.015.093.05.067.032.157.032.313-.035M14.844 9.645a.075.075 0 0 0-.059.074c0 .039.035.074.074.074.02 0 .043-.016.055-.031.027.02.066.02.086.023h.012c.02-.004.054-.004.082-.023a.08.08 0 0 0 .058.031c.04 0 .07-.035.07-.074a.075.075 0 0 0-.058-.074.05.05 0 0 1 .031.046c0 .028-.02.051-.047.051-.023 0-.043-.023-.046-.047a.12.12 0 0 1-.098.067.12.12 0 0 1-.098-.067c0 .024-.02.047-.047.047s-.046-.023-.046-.05c0-.02.011-.04.03-.047M14.922 9.86c-.078 0-.11.074-.18.124.04-.015.067-.05.125-.078.055-.035.102.004.13.004H15c.031 0 .078-.039.133-.004.055.028.086.063.125.078-.07-.05-.102-.125-.18-.125a.2.2 0 0 0-.078.028h-.004a.2.2 0 0 0-.074-.028m0 0" style="stroke:none;fill-rule:nonzero;fill:#85340a;fill-opacity:1"/><path d="M14.895 9.957c-.032.004-.07.008-.133.027.144-.035.172.016.234.016H15c.063 0 .094-.05.234-.016-.156-.05-.187-.015-.234-.015h-.004c-.027 0-.047-.012-.101-.012m0 0" style="stroke:none;fill-rule:nonzero;fill:#85340a;fill-opacity:1"/><path d="M14.77 9.984h-.028c.164.016.082.114.254.114H15c.172 0 .094-.098.258-.114-.172-.015-.117.09-.258.09h-.004c-.129 0-.09-.094-.226-.09M15.14 10.246a.14.14 0 0 0-.14-.144.14.14 0 0 0-.14.144.146.146 0 0 1 .14-.113c.066 0 .125.047.14.113M14.367 9.273c.18-.164.406-.187.531-.066q.048.066.059.137.03.14-.082.293a.06.06 0 0 1 .031.015.6.6 0 0 0 .063-.37c0-.032-.012-.06-.02-.09-.176-.149-.41-.165-.582.081m0 0" style="stroke:none;fill-rule:nonzero;fill:#85340a;fill-opacity:1"/><path d="M14.648 9.223c.102 0 .125.027.172.066s.07.031.078.04c.008.007 0 .034-.015.026a.6.6 0 0 1-.094-.066c-.047-.039-.094-.039-.14-.039-.141 0-.22.121-.239.113-.012-.008.082-.14.238-.14m0 0" style="stroke:none;fill-rule:nonzero;fill:#85340a;fill-opacity:1"/><path d="M14.645 9.273a.2.2 0 0 0-.176.098c.078.074.254.082.37-.008a.27.27 0 0 0-.194-.09m-.004.02c.066-.004.132.027.14.062-.078.09-.203.082-.281.016a.16.16 0 0 1 .14-.078m0 0" style="stroke:none;fill-rule:nonzero;fill:#843511;fill-opacity:1"/><path d="M14.723 9.355c0-.043-.032-.074-.07-.074-.04 0-.071.031-.071.074 0 .04.031.075.07.075s.07-.035.07-.075m0 0" style="stroke:none;fill-rule:nonzero;fill:#85340a;fill-opacity:1"/><path d="M14.457 9.402c.137.106.27.098.348.051.078-.05.078-.066.062-.066-.015 0-.031.015-.094.05-.062.032-.156.032-.316-.035m0 0" style="stroke:none;fill-rule:nonzero;fill:#85340a;fill-opacity:1"/></svg>