<svg xmlns="http://www.w3.org/2000/svg" width="4.2em" height="4.2em" version="1.0" viewBox="0 0 48.75 48.75"><defs><clipPath id="a"><path d="M0 0h48.5v48.5H0Zm0 0"/></clipPath><clipPath id="b"><path d="M7.406 13h33.578v23H7.406Zm0 0"/></clipPath></defs><g clip-path="url(#a)"><path fill="#fff" d="M0 0h48.5v48.5H0Zm0 0"/><path fill="#171717" d="M0 0h48.5v48.5H0Zm0 0"/></g><g clip-path="url(#b)"><path fill="#fff" d="M35.332 35.387a.43.43 0 0 1-.316-.13.43.43 0 0 1-.133-.316V13.45q-.001-.187.133-.316a.43.43 0 0 1 .316-.13h5.191a.42.42 0 0 1 .325.126q.136.13.136.32v21.492q-.001.186-.136.32a.44.44 0 0 1-.325.126Zm-8.703 0s-.418-.125-.418-.446V21.746a3.1 3.1 0 0 0-.207-1.203 3 3 0 0 0-.664-1.027 3 3 0 0 0-1.008-.684 3 3 0 0 0-1.2-.234h-9.71c-.559 0-.418.422-.418.422V34.94c0 .375-.422.446-.422.446H7.867a.44.44 0 0 1-.324-.125.42.42 0 0 1-.137-.32V13.448q-.002-.19.137-.32a.42.42 0 0 1 .324-.125H25.86q.587.002 1.16.121a5.95 5.95 0 0 1 3.044 1.64q.41.417.738.903c.215.328.398.668.55 1.031q.224.542.337 1.117.117.575.117 1.16l.015 15.965a.43.43 0 0 1-.133.317.43.43 0 0 1-.316.129Zm-9.652 0a.4.4 0 0 1-.297-.121.4.4 0 0 1-.125-.297V22.375a.4.4 0 0 1 .125-.297.4.4 0 0 1 .297-.121h5.273q.17.007.29.125a.4.4 0 0 1 .116.293v12.594a.4.4 0 0 1-.125.297.4.4 0 0 1-.297.12Zm0 0"/></g></svg>