<svg xmlns="http://www.w3.org/2000/svg" width="1em" height="1em" fill="none" viewBox="0 0 16 16"><path fill="#61DAFB" fill-rule="evenodd" d="M.5 2.75a2.25 2.25 0 1 1 4.28.97l1.345 1.344.284-.284a2.25 2.25 0 0 1 3.182 0l.284.284 1.344-1.344a2.25 2.25 0 1 1 1.06 1.06l-1.343 1.345.284.284a2.25 2.25 0 0 1 0 3.182l-.284.284 1.344 1.344a2.25 2.25 0 1 1-1.06 1.06l-1.345-1.343-.284.284a2.25 2.25 0 0 1-3.182 0l-.284-.284-1.344 1.344a2.25 2.25 0 1 1-1.06-1.06l1.343-1.345-.284-.284a2.25 2.25 0 0 1 0-3.182l.284-.284L3.72 4.781A2.25 2.25 0 0 1 .5 2.75M2.75 2a.75.75 0 1 0 0 1.5.75.75 0 0 0 0-1.5m0 10.5a.75.75 0 1 0 0 1.5.75.75 0 0 0 0-1.5m9.75.75a.75.75 0 1 1 1.5 0 .75.75 0 0 1-1.5 0M13.25 2a.75.75 0 1 0 0 1.5.75.75 0 0 0 0-1.5M7.47 5.841a.75.75 0 0 1 1.06 0l1.63 1.629a.75.75 0 0 1 0 1.06l-1.63 1.63a.75.75 0 0 1-1.06 0L5.84 8.53a.75.75 0 0 1 0-1.06l1.63-1.63z" clip-rule="evenodd"/></svg>