<svg xmlns="http://www.w3.org/2000/svg" width="1em" height="1em" version="1.0" viewBox="645.01 363.07 147.74 77.4"><path fill="#61DAFB" fill-rule="evenodd" stroke="#61DAFB" d="M777.2 394.035c-7.247 0-13.337-4.933-15.06-11.61h-17.827c-3.801 0-7.043 2.735-7.668 6.466l-.641 3.82a15.4 15.4 0 0 1-5.055 9.062 15.43 15.43 0 0 1 5.055 9.067l.64 3.816c.626 3.735 3.868 6.469 7.668 6.469h2.274c1.726-6.676 7.816-11.61 15.062-11.61 8.59 0 15.551 6.93 15.551 15.481 0 8.547-6.96 15.48-15.55 15.48-7.247 0-13.336-4.933-15.063-11.613h-2.274c-7.601 0-14.09-5.468-15.34-12.933l-.636-3.817c-.625-3.734-3.871-6.468-7.672-6.468h-6.16c-1.727 6.675-7.817 11.609-15.063 11.609s-13.336-4.934-15.062-11.61h-8.754c-1.727 6.676-7.816 11.61-15.062 11.61-8.59 0-15.551-6.93-15.551-15.48 0-8.547 6.96-15.477 15.55-15.477 7.247 0 13.336 4.933 15.063 11.61h8.754c1.726-6.677 7.816-11.61 15.062-11.61s13.336 4.933 15.063 11.61h6.16c3.8 0 7.047-2.739 7.672-6.47l.637-3.816c1.25-7.465 7.738-12.937 15.34-12.937h17.828c1.722-6.676 7.812-11.61 15.058-11.61 8.59 0 15.555 6.93 15.555 15.48s-6.965 15.481-15.555 15.481Zm0-7.738c4.296 0 7.777-3.469 7.777-7.742 0-4.274-3.48-7.739-7.778-7.739-4.293 0-7.773 3.465-7.773 7.739 0 4.273 3.48 7.742 7.773 7.742Zm-116.638 23.219c4.293 0 7.778-3.465 7.778-7.743 0-4.273-3.485-7.738-7.778-7.738s-7.777 3.465-7.777 7.738c0 4.278 3.485 7.743 7.778 7.743Zm46.657-7.743c0 4.278-3.485 7.743-7.778 7.743s-7.773-3.465-7.773-7.743c0-4.273 3.48-7.738 7.773-7.738s7.778 3.465 7.778 7.738Zm62.207 23.223c0 4.274-3.485 7.738-7.778 7.738s-7.773-3.464-7.773-7.738c0-4.277 3.48-7.742 7.773-7.742s7.778 3.465 7.778 7.742Zm0 0"/></svg>